#N canvas 77 81 450 367 10;
#X obj 288 78 + 1;
#X floatatom 293 145 5 0 0 0 - - -, f 5;
#X obj 254 15 inlet;
#X obj 74 331 outlet;
#X obj 167 331 outlet;
#X obj 270 331 outlet;
#X obj 128 20 r RESET;
#X obj 302 41 bng 15 250 50 0 empty empty empty 17 7 0 10 -262144 -1
-1;
#X obj 254 128 + 1;
#X obj 254 78 f 0;
#X obj 254 104 mod 4;
#X obj 254 176 sel 1 2 3 4;
#X msg 75 303 1;
#X msg 167 302 1;
#X msg 270 302 1;
#X msg 105 303 0;
#X msg 196 302 0;
#X msg 301 302 0;
#X msg 217 37 3;
#X connect 0 0 9 1;
#X connect 2 0 9 0;
#X connect 6 0 18 0;
#X connect 6 0 15 0;
#X connect 6 0 16 0;
#X connect 6 0 17 0;
#X connect 7 0 9 0;
#X connect 8 0 1 0;
#X connect 8 0 11 0;
#X connect 9 0 0 0;
#X connect 9 0 10 0;
#X connect 10 0 8 0;
#X connect 11 0 12 0;
#X connect 11 0 16 0;
#X connect 11 0 17 0;
#X connect 11 1 13 0;
#X connect 11 1 15 0;
#X connect 11 1 17 0;
#X connect 11 2 14 0;
#X connect 11 2 16 0;
#X connect 11 2 15 0;
#X connect 11 3 17 0;
#X connect 11 3 16 0;
#X connect 11 3 15 0;
#X connect 12 0 3 0;
#X connect 13 0 4 0;
#X connect 14 0 5 0;
#X connect 15 0 3 0;
#X connect 16 0 4 0;
#X connect 17 0 5 0;
#X connect 18 0 9 0;
