#N canvas 2 9 1251 592 10;
#X obj 20 515 dac~ 1;
#X obj 115 515 dac~ 2;
#X obj 214 515 dac~ 3;
#X obj 636 515 dac~ 9;
#X obj 722 514 dac~ 10;
#X obj 821 515 dac~ 11;
#X obj 881 520 dac~ 12;
#X obj 977 522 dac~ 13;
#X obj 1071 520 dac~ 14;
#X obj 1167 517 dac~ 15;
#X text 20 535 Totem;
#X text 96 535 Archive Odd.;
#X text 310 556 N.E.R.D;
#X text 636 535 H.A.G.T;
#X text 722 534 Trefoil;
#X text 847 548 Pusha T;
#X text 977 542 POS;
#X text 1060 540 Obs. Deck;
#X text 1167 537 Sub;
#X obj 413 102 tgl 30 0 empty empty RESTING_CONTENT 17 7 0 10 -262144
-1 -1 0 1;
#X obj 538 102 tgl 30 0 empty empty RAFFLE 17 7 0 10 -262144 -1 -1
0 1;
#X obj 615 102 tgl 30 0 empty empty CRATE_UNBOXING 17 7 0 10 -262144
-1 -1 0 1;
#X obj 750 129 tgl 30 0 empty empty Cue_3-A 17 7 0 10 -262144 -1 -1
0 1;
#X obj 812 129 tgl 30 0 empty empty Cue_3-B 17 7 0 10 -262144 -1 -1
0 1;
#X obj 873 129 tgl 30 0 empty empty Cue_3-C 17 7 0 10 -262144 -1 -1
0 1;
#X obj 979 91 tgl 30 0 empty empty PUSHA_T 17 7 0 10 -262144 -1 -1
0 1;
#X text 197 515 FL;
#X text 256 522 FR;
#X obj 781 62 bng 15 250 50 0 empty empty empty 17 7 0 10 -262144 -1
-1;
#X obj 88 147 bng 15 250 50 0 empty empty empty 17 7 0 10 -262144 -1
-1;
#X obj 88 170 s RESET, f 8;
#X obj 780 88 3counter;
#X obj 750 169 s cue3-A;
#X obj 812 169 s cue3-B;
#X obj 873 169 s cue3-C;
#X obj 979 160 s cue4;
#X obj 538 145 s cue1;
#X obj 615 146 s cue2;
#X obj 413 147 s rest;
#X text 806 66 PHARELL;
#X obj 22 204 audio_tables_loader;
#X obj 22 26 loadbang;
#X obj 38 170 bng 15 250 50 0 empty empty empty 17 7 0 10 -262144 -1
-1;
#X obj 22 243 s audio;
#X obj 114 282 archive_odd, f 9;
#X obj 114 320 output~;
#X obj 79 111 s ramp time;
#X obj 42 85 hsl 128 15 0 127 0 0 empty empty empty -2 -8 0 10 -262144
-1 -1 2600 1;
#X floatatom 39 114 5 0 0 0 - - -, f 5;
#X msg 39 58 26;
#X text 75 57 MASTER VOLUME RAMPING;
#X obj 20 320 output~;
#X obj 213 322 output~;
#X obj 273 521 dac~ 4;
#X obj 334 526 dac~ 5;
#X obj 393 532 dac~ 6;
#X obj 456 538 dac~ 7;
#X text 550 534 Y-3;
#X text 317 527 SL;
#X text 377 534 SR;
#X obj 273 328 output~;
#X obj 333 334 output~;
#X text 434 539 SUB;
#X obj 393 340 output~;
#X obj 454 346 output~;
#X obj 550 322 output~;
#X obj 550 322 output~;
#X obj 636 322 output~;
#X obj 723 322 output~;
#X obj 820 322 output~;
#X obj 880 328 output~;
#X obj 976 327 output~;
#X obj 1071 326 output~;
#X obj 1168 323 output~;
#X obj 20 295 totem, f 9;
#X obj 550 289 y3, f 9;
#X obj 550 514 dac~ 1;
#X connect 19 0 38 0;
#X connect 20 0 36 0;
#X connect 21 0 37 0;
#X connect 22 0 32 0;
#X connect 23 0 33 0;
#X connect 24 0 34 0;
#X connect 25 0 35 0;
#X connect 28 0 31 0;
#X connect 29 0 30 0;
#X connect 29 0 42 0;
#X connect 31 0 22 0;
#X connect 31 1 23 0;
#X connect 31 2 24 0;
#X connect 40 0 43 0;
#X connect 41 0 40 0;
#X connect 41 0 49 0;
#X connect 42 0 40 0;
#X connect 44 0 45 0;
#X connect 44 1 45 2;
#X connect 45 0 1 0;
#X connect 47 0 46 0;
#X connect 47 0 48 0;
#X connect 49 0 47 0;
#X connect 51 0 0 0;
#X connect 52 0 2 0;
#X connect 60 0 53 0;
#X connect 61 0 54 0;
#X connect 63 0 55 0;
#X connect 64 0 56 0;
#X connect 65 0 76 0;
#X connect 67 0 3 0;
#X connect 68 0 4 0;
#X connect 69 0 5 0;
#X connect 70 0 6 0;
#X connect 71 0 7 0;
#X connect 72 0 8 0;
#X connect 73 0 9 0;
#X connect 74 0 51 0;
#X connect 74 1 51 2;
#X connect 75 0 65 0;
#X connect 75 1 65 2;
