#N canvas 722 113 463 461 10;
#X obj 281 158 tgl 30 0 empty empty empty 17 7 0 10 -4034 -1 -1 0 1
;
#X floatatom 308 392 5 0 0 0 - - -, f 5;
#X floatatom 106 323 10 0 0 0 RAMP_TIME - -, f 10;
#X obj 28 144 hsl 128 15 0 5000 0 0 empty empty empty 8 -8 0 10 -262144
-1 -1 12700 1;
#X obj 308 239 sel 0 1;
#X obj 106 215 f;
#X obj 281 198 t b f;
#X msg 356 279 0;
#X obj 25 34 inlet;
#X obj 281 34 inlet;
#X obj 308 421 outlet;
#X text 317 165 switch on/off;
#X text 25 12 ramp time inlet;
#X text 288 53 toggle inlet;
#X text 227 279 gain in dB;
#X text 180 392 ramped output value;
#X obj 381 339 loadbang;
#X text 354 390 initial gain;
#X text 43 112 ramp scaling range;
#X obj 308 356 line -99;
#X msg 381 375 -99;
#X msg 308 279 -99;
#X obj 25 79 jrange 0 127 0 5000;
#X connect 0 0 6 0;
#X connect 1 0 10 0;
#X connect 2 0 19 1;
#X connect 3 0 5 0;
#X connect 4 0 21 0;
#X connect 4 1 7 0;
#X connect 5 0 2 0;
#X connect 6 0 5 0;
#X connect 6 1 4 0;
#X connect 7 0 19 0;
#X connect 8 0 22 0;
#X connect 9 0 0 0;
#X connect 16 0 20 0;
#X connect 19 0 1 0;
#X connect 20 0 1 0;
#X connect 21 0 19 0;
#X connect 22 0 3 0;
